<svg id="Capa_1" data-name="Capa 1" xmlns="http://www.w3.org/2000/svg" viewBox="0 0 61.25 65.47"><defs><style>.cls-1{fill:#ffed00;stroke-miterlimit:10;}.cls-1,.cls-2{stroke:#ffed00;}.cls-1,.cls-3{fill-rule:evenodd;}.cls-2{fill:none;stroke-linecap:round;stroke-linejoin:round;stroke-width:0.94px;}.cls-3{fill:#1d1d1b;}</style></defs><path class="cls-1" d="M245.43,162c-7.22,0-11.85,0-14.62,0a31.55,31.55,0,0,0-4.54.14,8.82,8.82,0,0,0-2.44.72,4.33,4.33,0,0,0-1.7,1.35,9.43,9.43,0,0,0-1.32,2.29,7.68,7.68,0,0,0-.48,2.67c-.6,11.67-.09,24.58,0,36.37,0,2.93,0,4,.1,4.77A2.83,2.83,0,0,0,221,212a25.33,25.33,0,0,0,2.35,2.44c1.18,1.14,2.83,2.67,4.57,4.33s3.58,3.45,4.71,4.56a23.72,23.72,0,0,0,2.06,1.88,5,5,0,0,0,1.72.86c.72.19,1.65.27,5.36.32s10.22,0,14.3,0,5.71-.06,6.62-.1a2.88,2.88,0,0,0,1.43-.26,12.2,12.2,0,0,0,2.6-2.05c1.73-1.58,4.65-4.42,6.9-6.58l4.7-4.52a11.05,11.05,0,0,0,1.27-1.31,2,2,0,0,0,.33-.69,4.34,4.34,0,0,0,.07-1.05c0-.55,0-1.41,0-2.2,0-12.5.44-25.42.12-37.86a11.75,11.75,0,0,0-.35-3,6.14,6.14,0,0,0-.95-2,7.9,7.9,0,0,0-1.59-1.62,5,5,0,0,0-1.5-.79,5.85,5.85,0,0,0-1.54-.3c-.59-.05-1.29-.05-6.54,0Z" transform="translate(-219.54 -161.45)"/><path class="cls-2" d="M245.43,162c-7.22,0-11.85,0-14.62,0a31.55,31.55,0,0,0-4.54.14,8.82,8.82,0,0,0-2.44.72,4.33,4.33,0,0,0-1.7,1.35,9.43,9.43,0,0,0-1.32,2.29,7.68,7.68,0,0,0-.48,2.67c-.6,11.67-.09,24.58,0,36.37,0,2.93,0,4,.1,4.77A2.83,2.83,0,0,0,221,212a25.33,25.33,0,0,0,2.35,2.44c1.18,1.14,2.83,2.67,4.57,4.33s3.58,3.45,4.71,4.56a23.72,23.72,0,0,0,2.06,1.88,5,5,0,0,0,1.72.86c.72.19,1.65.27,5.36.32s10.22,0,14.3,0,5.71-.06,6.62-.1a2.88,2.88,0,0,0,1.43-.26,12.2,12.2,0,0,0,2.6-2.05c1.73-1.58,4.65-4.42,6.9-6.58l4.7-4.52a11.05,11.05,0,0,0,1.27-1.31,2,2,0,0,0,.33-.69,4.34,4.34,0,0,0,.07-1.05c0-.55,0-1.41,0-2.2,0-12.5.44-25.42.12-37.86a11.75,11.75,0,0,0-.35-3,6.14,6.14,0,0,0-.95-2,7.9,7.9,0,0,0-1.59-1.62,5,5,0,0,0-1.5-.79,5.85,5.85,0,0,0-1.54-.3c-.59-.05-1.29-.05-6.54,0Z" transform="translate(-219.54 -161.45)"/><path class="cls-3" d="M238.74,174.7a3.63,3.63,0,1,1-3.62,3.62,3.62,3.62,0,0,1,3.62-3.62" transform="translate(-219.54 -161.45)"/><path class="cls-3" d="M263.66,174.23a3,3,0,1,1-3,3,3,3,0,0,1,3-3" transform="translate(-219.54 -161.45)"/><path class="cls-3" d="M263.65,195.48a1.94,1.94,0,0,0-.22-1.86,2.48,2.48,0,0,0-1.81-.71,5,5,0,0,0-2.38.77,16.39,16.39,0,0,0-2.36,1.74,11.24,11.24,0,0,1-1.38,1.15.64.64,0,0,1-.76,0c-.13-.14-.11-.37,0-.62a6,6,0,0,1,.67-.94,19.67,19.67,0,0,1,1.5-1.68,17.23,17.23,0,0,1,2.37-2,6.67,6.67,0,0,1,3-1.29,7.27,7.27,0,0,1,3.41.56,4.59,4.59,0,0,1,2.1,1.61,3.55,3.55,0,0,1,.43,2.67,18,18,0,0,1-1.59,5.17,33.75,33.75,0,0,1-3.63,5.87,26.08,26.08,0,0,1-4.09,4.37,23.27,23.27,0,0,1-4.64,3,7.82,7.82,0,0,1-4,.82,15.57,15.57,0,0,1-5.74-1.49,35.3,35.3,0,0,1-8.07-5.1,41.27,41.27,0,0,1-6.33-6.78,8.77,8.77,0,0,1-1.9-3.89,6.28,6.28,0,0,1,.15-2.71,3.36,3.36,0,0,1,1.38-1.8,7.44,7.44,0,0,1,3.2-1.3,10.59,10.59,0,0,1,4.91.49,28.09,28.09,0,0,1,4.78,2.27c1,.58,1.09.66,1.08.77a.43.43,0,0,1-.21.32,1,1,0,0,1-.52.11,2.82,2.82,0,0,1-1-.33,17.35,17.35,0,0,0-2.71-1.05,5.91,5.91,0,0,0-3.2,0,3.5,3.5,0,0,0-2.09,1.77c-.38.79-.38,1.69.41,3.06a18,18,0,0,0,4.59,4.83,33,33,0,0,0,7.07,4,7.58,7.58,0,0,0,5.28.58,16.2,16.2,0,0,0,5.81-3.27,28,28,0,0,0,4.77-5.35,11.31,11.31,0,0,0,1.77-3.69" transform="translate(-219.54 -161.45)"/><path class="cls-3" d="M255.33,181.45a5,5,0,0,1,1.89-1.57,2.84,2.84,0,0,1,1.9.08,3,3,0,0,1,1.35,1c.53.59,1.27,1.53,2.06,2.46a22.34,22.34,0,0,0,2.54,2.6,27.21,27.21,0,0,0,2.64,1.9l1.69,1.14a2.81,2.81,0,0,1,.58.43.38.38,0,0,1,.07.4c-.06.16-.21.35-.73.15a22,22,0,0,0-3-1.3,27.65,27.65,0,0,0-5.5-1.06,5.65,5.65,0,0,0-3.43.56,6.3,6.3,0,0,0-2.92,2.81,21.78,21.78,0,0,0-1.31,7.2c0,.49,0,1,0,1.25s-.13.42-.28.47a.41.41,0,0,1-.52-.22,4.78,4.78,0,0,1-.44-1.67c-.13-.91-.27-2.24-.37-3.95a24.57,24.57,0,0,1,.17-5.6,14.52,14.52,0,0,1,1.72-4.46,16.69,16.69,0,0,1,1.85-2.67" transform="translate(-219.54 -161.45)"/><path class="cls-3" d="M231.17,186.08c.64-.21,2-.39,3.36-.71a28.26,28.26,0,0,0,4.09-1.25,10.85,10.85,0,0,0,2.5-1.35c.58-.44,1-.85,1.4-1.2a1.85,1.85,0,0,1,1.33-.57,2.4,2.4,0,0,1,1.28,1,14.47,14.47,0,0,1,1.26,1.81c.43.72.89,1.57,1.37,2.46a12.4,12.4,0,0,1,1.36,3.33,29.69,29.69,0,0,1,.62,5.24,15.82,15.82,0,0,1-.37,4.29,27,27,0,0,1-1.35,4.3c-.46,1.05-.81,1.38-.93,1.19a8.13,8.13,0,0,1,0-2.11,33.22,33.22,0,0,0-.16-4.18A9.85,9.85,0,0,0,246,195a12.55,12.55,0,0,0-2.32-3.36,15.58,15.58,0,0,0-3.79-2.78,22.12,22.12,0,0,0-3.86-1.55,10.07,10.07,0,0,0-2.4-.5,19.61,19.61,0,0,0-2,0c-.52,0-.79,0-.94-.09s-.18-.37.46-.58" transform="translate(-219.54 -161.45)"/></svg>